<svg id="svg" version="1.1" xmlns="http://www.w3.org/2000/svg" xmlns:xlink="http://www.w3.org/1999/xlink" width="400" height="400" viewBox="0, 0, 400,400"><g id="svgg"><path id="path0" d="M92.917 0.142 C 46.843 3.672,9.063 37.919,1.372 83.125 C -0.012 91.258,0.104 80.589,0.104 200.000 C 0.104 319.411,-0.012 308.742,1.372 316.875 C 7.397 352.286,32.410 382.068,66.312 394.195 L 68.561 395.000 200.000 395.000 L 331.439 395.000 333.688 394.195 C 367.590 382.068,392.603 352.286,398.628 316.875 C 400.012 308.742,399.896 319.411,399.896 200.000 C 399.896 97.223,399.878 92.046,399.519 89.167 C 393.588 41.639,359.063 7.031,311.042 0.477 C 308.664 0.152,97.022 -0.172,92.917 0.142 M350.000 100.303 C 383.644 107.428,392.304 148.977,364.321 169.019 C 347.254 181.243,321.095 176.253,308.985 158.462 C 300.065 145.358,300.963 126.521,311.100 114.091 C 317.660 106.048,326.199 101.154,336.042 99.798 C 338.934 99.399,347.135 99.696,350.000 100.303 M38.333 133.854 L 38.333 166.042 51.667 166.042 L 65.000 166.042 65.000 169.896 L 65.000 173.750 47.083 173.750 L 29.167 173.750 29.167 137.708 L 29.167 101.667 33.750 101.667 L 38.333 101.667 38.333 133.854 M165.000 105.521 L 165.000 109.375 149.792 109.375 L 134.583 109.375 134.583 120.104 L 134.583 130.833 149.792 130.833 L 165.000 130.833 165.000 134.583 L 165.000 138.333 149.688 138.333 L 134.375 138.333 134.375 152.188 L 134.375 166.042 149.688 166.042 L 165.000 166.042 165.000 169.896 L 165.000 173.750 145.313 173.750 L 125.625 173.750 125.625 137.708 L 125.625 101.667 145.313 101.667 L 165.000 101.667 165.000 105.521 M255.104 102.259 C 269.616 106.252,273.466 127.928,261.173 136.426 C 260.317 137.018,258.697 137.947,257.573 138.490 L 255.529 139.479 250.372 139.583 L 245.214 139.688 258.644 156.667 C 266.030 166.005,272.076 173.716,272.079 173.802 C 272.081 173.888,269.434 173.958,266.196 173.958 L 260.310 173.958 246.874 155.677 L 233.438 137.396 233.384 155.573 L 233.331 173.750 228.645 173.750 L 223.958 173.750 223.958 137.691 L 223.958 101.633 238.698 101.717 C 253.109 101.799,253.475 101.811,255.104 102.259 M337.500 107.639 C 322.050 110.086,311.598 123.021,312.145 139.019 C 313.097 166.863,349.978 177.580,366.183 154.721 C 380.551 134.453,366.259 107.315,341.329 107.528 C 339.510 107.544,337.786 107.594,337.500 107.639 M233.333 121.229 L 233.333 133.333 240.990 133.332 C 250.198 133.330,251.630 133.201,253.687 132.186 C 261.129 128.515,260.632 114.727,252.917 110.837 C 250.114 109.423,249.402 109.327,240.990 109.221 L 233.333 109.124 233.333 121.229 M350.000 222.386 C 383.644 229.511,392.304 271.060,364.321 291.102 C 347.254 303.327,321.095 298.336,308.985 280.545 C 300.065 267.441,300.963 248.604,311.100 236.174 C 317.660 228.131,326.199 223.238,336.042 221.881 C 338.934 221.483,347.135 221.779,350.000 222.386 M38.333 255.938 L 38.333 288.125 51.667 288.125 L 65.000 288.125 65.000 291.979 L 65.000 295.833 47.083 295.833 L 29.167 295.833 29.167 259.792 L 29.167 223.750 33.750 223.750 L 38.333 223.750 38.333 255.938 M165.000 227.604 L 165.000 231.458 149.792 231.458 L 134.583 231.458 134.583 242.188 L 134.583 252.917 149.792 252.917 L 165.000 252.917 165.000 256.667 L 165.000 260.417 149.688 260.417 L 134.375 260.417 134.375 274.271 L 134.375 288.125 149.688 288.125 L 165.000 288.125 165.000 291.979 L 165.000 295.833 145.313 295.833 L 125.625 295.833 125.625 259.792 L 125.625 223.750 145.313 223.750 L 165.000 223.750 165.000 227.604 M255.104 224.343 C 269.616 228.336,273.466 250.011,261.173 258.509 C 260.317 259.101,258.697 260.030,257.573 260.574 L 255.529 261.563 250.372 261.667 L 245.214 261.771 258.644 278.750 C 266.030 288.089,272.076 295.799,272.079 295.885 C 272.081 295.971,269.434 296.042,266.196 296.042 L 260.310 296.042 246.874 277.760 L 233.438 259.479 233.384 277.656 L 233.331 295.833 228.645 295.833 L 223.958 295.833 223.958 259.775 L 223.958 223.716 238.698 223.800 C 253.109 223.882,253.475 223.894,255.104 224.343 M337.500 229.723 C 322.050 232.169,311.598 245.104,312.145 261.102 C 313.097 288.946,349.978 299.663,366.183 276.804 C 380.551 256.536,366.259 229.398,341.329 229.612 C 339.510 229.627,337.786 229.677,337.500 229.723 M233.333 243.312 L 233.333 255.417 240.990 255.415 C 250.198 255.413,251.630 255.284,253.687 254.269 C 261.129 250.599,260.632 236.811,252.917 232.920 C 250.114 231.507,249.402 231.410,240.990 231.304 L 233.333 231.208 233.333 243.312 " stroke="none" fill="#fc941c" fill-rule="evenodd"></path><path id="path1" d="M336.042 99.798 C 326.199 101.154,317.660 106.048,311.100 114.091 C 300.963 126.521,300.065 145.358,308.985 158.462 C 321.095 176.253,347.254 181.243,364.321 169.019 C 388.882 151.427,385.973 116.048,358.912 103.230 C 352.692 100.284,343.033 98.835,336.042 99.798 M223.958 137.691 L 223.958 173.750 228.645 173.750 L 233.331 173.750 233.384 155.573 L 233.438 137.396 246.874 155.677 L 260.310 173.958 266.196 173.958 C 269.434 173.958,272.081 173.888,272.079 173.802 C 272.076 173.716,266.030 166.005,258.644 156.667 L 245.214 139.688 250.372 139.583 L 255.529 139.479 257.573 138.490 C 264.481 135.149,267.986 130.067,268.469 122.690 C 268.999 114.603,264.600 106.382,258.122 103.350 C 254.767 101.780,255.125 101.810,238.698 101.717 L 223.958 101.633 223.958 137.691 M346.746 107.833 C 370.934 111.659,380.254 141.145,362.804 158.633 C 348.625 172.843,323.630 168.614,314.888 150.525 C 306.181 132.510,317.636 110.784,337.500 107.639 C 338.981 107.405,344.809 107.527,346.746 107.833 M250.208 109.788 C 257.800 112.075,261.305 120.634,257.681 128.037 C 255.388 132.723,253.476 133.329,240.990 133.332 L 233.333 133.333 233.333 121.229 L 233.333 109.124 240.990 109.221 C 248.184 109.311,248.740 109.346,250.208 109.788 M29.167 259.792 L 29.167 295.833 47.083 295.833 L 65.000 295.833 65.000 291.979 L 65.000 288.125 51.667 288.125 L 38.333 288.125 38.333 255.938 L 38.333 223.750 33.750 223.750 L 29.167 223.750 29.167 259.792 M125.625 259.792 L 125.625 295.833 145.313 295.833 L 165.000 295.833 165.000 291.979 L 165.000 288.125 149.688 288.125 L 134.375 288.125 134.375 274.271 L 134.375 260.417 149.688 260.417 L 165.000 260.417 165.000 256.667 L 165.000 252.917 149.792 252.917 L 134.583 252.917 134.583 242.188 L 134.583 231.458 149.792 231.458 L 165.000 231.458 165.000 227.604 L 165.000 223.750 145.313 223.750 L 125.625 223.750 125.625 259.792 " stroke="none" fill="#fcfbfb" fill-rule="evenodd"></path><path id="path2" d="M29.167 137.708 L 29.167 173.750 47.083 173.750 L 65.000 173.750 65.000 169.896 L 65.000 166.042 51.667 166.042 L 38.333 166.042 38.333 133.854 L 38.333 101.667 33.750 101.667 L 29.167 101.667 29.167 137.708 M125.625 137.708 L 125.625 173.750 145.313 173.750 L 165.000 173.750 165.000 169.896 L 165.000 166.042 149.688 166.042 L 134.375 166.042 134.375 152.188 L 134.375 138.333 149.688 138.333 L 165.000 138.333 165.000 134.583 L 165.000 130.833 149.792 130.833 L 134.583 130.833 134.583 120.104 L 134.583 109.375 149.792 109.375 L 165.000 109.375 165.000 105.521 L 165.000 101.667 145.313 101.667 L 125.625 101.667 125.625 137.708 M336.042 221.881 C 326.199 223.238,317.660 228.131,311.100 236.174 C 300.963 248.604,300.065 267.441,308.985 280.545 C 321.095 298.336,347.254 303.327,364.321 291.102 C 388.882 273.511,385.973 238.131,358.912 225.314 C 352.692 222.368,343.033 220.918,336.042 221.881 M223.958 259.775 L 223.958 295.833 228.645 295.833 L 233.331 295.833 233.384 277.656 L 233.438 259.479 246.874 277.760 L 260.310 296.042 266.196 296.042 C 269.434 296.042,272.081 295.971,272.079 295.885 C 272.076 295.799,266.030 288.089,258.644 278.750 L 245.214 261.771 250.372 261.667 L 255.529 261.563 257.573 260.574 C 264.481 257.232,267.986 252.150,268.469 244.773 C 268.999 236.686,264.600 228.465,258.122 225.433 C 254.767 223.864,255.125 223.894,238.698 223.800 L 223.958 223.716 223.958 259.775 M346.746 229.917 C 370.934 233.743,380.254 263.228,362.804 280.716 C 348.625 294.927,323.630 290.697,314.888 272.608 C 306.181 254.593,317.636 232.868,337.500 229.723 C 338.981 229.488,344.809 229.610,346.746 229.917 M250.208 231.871 C 257.800 234.158,261.305 242.717,257.681 250.120 C 255.388 254.806,253.476 255.413,240.990 255.415 L 233.333 255.417 233.333 243.312 L 233.333 231.208 240.990 231.304 C 248.184 231.395,248.740 231.429,250.208 231.871 " stroke="none" fill="#1c1c1c" fill-rule="evenodd"></path></g></svg>